<?xml version="1.0" encoding="utf-8"?>
<!-- Generator: Adobe Illustrator 24.1.1, SVG Export Plug-In . SVG Version: 6.00 Build 0)  -->
<svg version="1.1" xmlns="http://www.w3.org/2000/svg" xmlns:xlink="http://www.w3.org/1999/xlink" x="0px" y="0px"
	 viewBox="0 0 1366 768" style="enable-background:new 0 0 1366 768;" xml:space="preserve">
<style type="text/css">
	.st0{fill:none;}
	.st1{fill:#0073BD;}
	.st2{fill:#634219;stroke:#000000;stroke-miterlimit:10;}
	.st3{fill:#75C156;}
	.st4{fill:#634219;}
	.st5{fill:#D4DDDE;}
	.st6{fill:#E5E27B;}
	.st7{fill:#8C8687;}
	.st8{fill:#F89835;}
	.st9{fill:#2E6C69;stroke:#2E6C69;stroke-miterlimit:10;}
	.st10{fill:#231F20;}
	.st11{fill:#C1A586;}
	.st12{fill:#6ABD45;}
	.st13{fill:#D49786;}
	.st14{fill:#231F20;stroke:#231F20;stroke-miterlimit:10;}
	.st15{fill:#FFFFFF;}
	.st16{fill:#465C2A;}
	.st17{fill:#FFFFFF;stroke:#FFFFFF;stroke-miterlimit:10;}
	.st18{fill:#231F20;stroke:#231F20;stroke-width:1;stroke-miterlimit:9.9999;}
	.st19{fill:#FFFFFF;stroke:#FFFFFF;stroke-width:1;stroke-miterlimit:10.0005;}
	.st20{fill:#231F20;stroke:#231F20;stroke-width:1;stroke-miterlimit:10.0004;}
	.st21{fill:#FFFFFF;stroke:#FFFFFF;stroke-width:1;stroke-miterlimit:10.0002;}
	.st22{fill:#231F20;stroke:#231F20;stroke-width:1;stroke-miterlimit:9.9996;}
	.st23{fill:#FFFFFF;stroke:#FFFFFF;stroke-width:1;stroke-miterlimit:9.9997;}
	.st24{fill:#AB8630;}
	.st25{fill:#CE802C;}
	.st26{fill:#231F20;stroke:#231F20;stroke-width:1;stroke-miterlimit:10;}
	.st27{fill:#FFFFFF;stroke:#FFFFFF;stroke-width:1;stroke-miterlimit:10.0001;}
	.st28{fill:#231F20;stroke:#231F20;stroke-width:1;stroke-miterlimit:9.9997;}
	.st29{fill:#93301E;}
	.st30{fill:#8C8285;}
	.st31{display:none;}
	.st32{display:inline;fill:#E5E27B;}
	.st33{display:inline;fill:#F89835;}
	.st34{display:inline;fill:#2E6C69;stroke:#2E6C69;stroke-miterlimit:10;}
	.st35{display:inline;fill:#231F20;}
	.st36{display:inline;fill:none;}
	.st37{display:inline;fill:#E3B12C;}
	.st38{display:inline;fill:#B79022;}
	.st39{display:inline;fill:none;stroke:#231F20;stroke-miterlimit:10;}
	.st40{display:inline;fill:#AB8630;}
	.st41{display:inline;fill:#FFFFFF;}
	.st42{display:inline;fill:#93301E;}
	.st43{display:inline;fill:#D49786;}
	.st44{display:inline;fill:url(#SVGID_1_);}
	.st45{display:inline;fill:url(#SVGID_2_);}
	.st46{display:inline;fill:url(#SVGID_3_);}
</style>
<pattern  y="768" width="31.9" height="33.3" patternUnits="userSpaceOnUse" id="sprinkler" viewBox="0 -33.3 31.9 33.3" style="overflow:visible;">
	<g>
		<rect y="-33.3" class="st0" width="31.9" height="33.3"/>
		<g>
			<rect x="0" y="-33.3" class="st0" width="31.9" height="33.3"/>
			<g id="Layer_8_1_">
				<ellipse class="st1" cx="5" cy="-28.3" rx="3.2" ry="3.2"/>
				<ellipse class="st1" cx="15.8" cy="-28.3" rx="3.2" ry="3.2"/>
				<ellipse class="st1" cx="26.9" cy="-28.3" rx="3.2" ry="3.2"/>
				<ellipse class="st1" cx="5" cy="-16" rx="3.2" ry="3.2"/>
				<ellipse class="st1" cx="15.8" cy="-16" rx="3.2" ry="3.2"/>
				<ellipse class="st1" cx="26.5" cy="-16" rx="3.2" ry="3.2"/>
				<ellipse class="st1" cx="5" cy="-5" rx="3.2" ry="3.2"/>
				<ellipse class="st1" cx="15.8" cy="-5" rx="3.2" ry="3.2"/>
				<ellipse class="st1" cx="26.9" cy="-5" rx="3.2" ry="3.2"/>
			</g>
		</g>
	</g>
</pattern>
<g id="Layer_1">
	<g>
		<g>
			<g>
				<rect y="261.2" class="st2" width="1366" height="74.2"/>
				<rect class="st3" width="147.4" height="768"/>
				<rect x="147.4" class="st4" width="23.1" height="768"/>
				<rect x="1342.9" class="st4" width="23.1" height="768"/>
				<rect x="147.4" class="st4" width="1218.6" height="42.9"/>
				<rect x="147.4" y="722.5" class="st4" width="1218.6" height="45.5"/>
				<rect x="170.5" y="335.4" class="st5" width="1172.4" height="387.1"/>
				<rect x="551.6" y="4.3" class="st4" width="19.4" height="318.2"/>
				<rect x="942.4" y="4.3" class="st4" width="19.4" height="309.6"/>
				<rect x="170.5" y="42.9" class="st6" width="381.1" height="218.3"/>
				<rect x="571" y="42.9" class="st6" width="371.4" height="218.3"/>
				<rect x="961.8" y="42.9" class="st6" width="381.1" height="218.3"/>
			</g>
		</g>
		<path class="st7" d="M908.1,99c0,0,19.3,23.8,30.4,22.5c0,0-7.6,12.6-28.5-7.3C910,114.2,904,108.2,908.1,99"/>
		<rect x="1100.5" y="261.2" class="st8" width="103.7" height="74.2"/>
		<ellipse class="st9" cx="1178.8" cy="282.3" rx="11.2" ry="12"/>
		<ellipse class="st9" cx="1127.5" cy="282.3" rx="11.2" ry="12"/>
		<circle class="st10" cx="1159.8" cy="300.3" r="2"/>
		<circle class="st10" cx="1142.2" cy="300.3" r="2"/>
		<rect x="1150.5" y="261.2" class="st10" width="1.8" height="74.2"/>
		<rect x="704.8" y="261.2" class="st8" width="103.7" height="74.2"/>
		<ellipse class="st9" cx="783.2" cy="282.3" rx="11.2" ry="12"/>
		<ellipse class="st9" cx="731.9" cy="282.3" rx="11.2" ry="12"/>
		<circle class="st10" cx="764.1" cy="300.3" r="2"/>
		<circle class="st10" cx="746.5" cy="300.3" r="2"/>
		<rect x="754.9" y="261.2" class="st10" width="1.8" height="74.2"/>
		<rect x="311" y="261.2" class="st8" width="103.7" height="74.2"/>
		<ellipse class="st9" cx="389.4" cy="282.3" rx="11.2" ry="12"/>
		<ellipse class="st9" cx="338.1" cy="282.3" rx="11.2" ry="12"/>
		<circle class="st10" cx="370.3" cy="300.3" r="2"/>
		<circle class="st10" cx="352.7" cy="300.3" r="2"/>
		<rect x="361" y="261.2" class="st10" width="1.8" height="74.2"/>
		<path class="st4" d="M532.3,225.2c0,0-21.2,5.6-29.3,0c0,0,1.5-68.7-11.6-83.9l-14.7-19.7l8.1-10.6
			C484.8,111,525.2,159.5,532.3,225.2z"/>
		<path class="st11" d="M328.6,65.7c0,0,80.4,55.4,148.1,55.9l1.6,2.1c0,0-64.6,2.4-151.2-55.3L328.6,65.7z"/>
		<path class="st12" d="M476.7,121.6c0,0-29.3-3.5-41.9,8.1c0,0,10.1-21.7,23.2-18.7c0,0-16.2-31.8-23.2-30.8c0,0,35.4,4,37.4,15.7
			c0,0,15.2-25.3,55.1-24.8c0,0-20.7,30.3-28.3,35.4c0,0,21.2-3,39.9,11.1C538.8,117.5,508.5,127.6,476.7,121.6z"/>
		<path class="st4" d="M624.5,141.8c0,0,14.3,5,19.7,0c0,0-1-62.3,7.8-76.1l9.9-17.9l-5.4-9.6C656.5,38.2,629.3,82.2,624.5,141.8z"
			/>
		<path class="st12" d="M662,50.1c0,0,19.7-3.2,28.2,7.3c0,0-6.8-19.7-15.7-17c0,0,10.9-28.9,15.7-28c0,0-23.8,3.7-25.2,14.2
			c0,0-10.2-22.9-37.1-22.5c0,0,14,27.5,19.1,32.1c0,0-14.3-2.8-26.9,10.1C620.1,46.5,640.5,55.6,662,50.1z"/>
		<path class="st4" d="M576.1,192.5c0,0,14.3,5,19.7,0c0,0-1-62.3,7.8-76.1l9.9-17.9l-5.4-9.6C608.1,88.9,580.8,132.9,576.1,192.5z"
			/>
		<path class="st12" d="M613.5,98.6c0,0,19.7-3.2,28.2,7.3c0,0-6.8-19.7-15.7-17c0,0,10.9-28.9,15.7-28c0,0-23.8,3.7-25.2,14.2
			c0,0-10.2-22.9-37.1-22.5c0,0,14,27.5,19.1,32.1c0,0-14.3-2.8-26.9,10.1C571.7,94.9,592.1,104,613.5,98.6z"/>
		<path class="st4" d="M186.3,318.3c0,0,14.3,5,19.7,0c0,0-1-62.3,7.8-76.1l9.9-17.9l-5.4-9.6C218.3,214.7,191,258.7,186.3,318.3z"
			/>
		<path class="st12" d="M223.7,224.3c0,0,19.7-3.2,28.2,7.3c0,0-6.8-19.7-15.7-17c0,0,10.9-28.9,15.7-28c0,0-23.8,3.7-25.2,14.2
			c0,0-10.2-22.9-37.1-22.5c0,0,14,27.5,19.1,32.1c0,0-14.3-2.8-26.9,10.1C181.8,220.6,202.3,229.8,223.7,224.3z"/>
		<path class="st7" d="M801.7,70.2c0,0-15.2-19.7-26.5,0s11.6,40.8,11.6,40.8S806,148,801.7,70.2z"/>
		<path class="st13" d="M800,71c0,0-10.4-16.7-18.1,0c-7.8,16.7,7.9,34.6,7.9,34.6S802.9,137,800,71z"/>
		<ellipse class="st7" cx="867" cy="116.3" rx="49.5" ry="32.9"/>
		<ellipse class="st7" cx="823.7" cy="87.9" rx="32.4" ry="29.2"/>
		<path class="st7" d="M824.3,123.6c0.7-9.3-3.7-14.9-3.7-14.9h-12c0,0-6.8,25.1-2.5,47.1c0,0,11.6,6.1,20.3,0"/>
		<path class="st7" d="M918.7,124.9c0.7-10.1-3.7-16.3-3.7-16.3h-12c0,0-6.8,27.4-2.5,51.5c0,0,11.6,6.6,20.3,0"/>
		<path class="st7" d="M888.3,123.5c0.7-9.3-3.7-14.9-3.7-14.9h-12c0,0-6.8,25.1-2.5,47.1c0,0,11.6,6.1,20.3,0"/>
		<path class="st7" d="M848.5,134.1c0.7-9.3-3.7-14.9-3.7-14.9h-12c0,0-6.8,25.1-2.5,47.1c0,0,11.6,6.1,20.3,0"/>
		<path class="st14" d="M798.7,99.3c0,0,15.4,30.5,33.6,1.6C832.2,100.9,812.3,110.1,798.7,99.3z"/>
		<path class="st7" d="M911.8,102.3c0,0-9.2-23.7-39.7-20S911.8,102.3,911.8,102.3z"/>
		<path class="st15" d="M807.2,102.8c0,0,0.3,11.2-2.5,16.9c0,0-2.4,3.2-1,4.3c1.4,1.1,12-14.5,8.2-22.8
			C811.9,101.3,809.6,99.3,807.2,102.8z"/>
		<path class="st15" d="M823.7,101.3c0,0,0.3,11.2-2.5,16.9c0,0-2.4,3.2-1,4.3c1.4,1.1,12-14.5,8.2-22.8
			C828.3,99.7,826.1,97.8,823.7,101.3z"/>
		<path class="st7" d="M803.8,89.3c0,0-12.6,8.4-18.9,33.4s-6.6,26.6-6.6,26.6s3.5,6,6.3,3s11.9-37.6,37.4-51.8
			C822,100.6,820.5,81.1,803.8,89.3z"/>
		<circle class="st10" cx="784.2" cy="149.4" r="1.2"/>
		<circle class="st10" cx="780.3" cy="149.4" r="1.2"/>
		<path class="st7" d="M838.4,68.2c0,0,17.5-22.7,30.6,0s-13.4,47-13.4,47S833.4,157.9,838.4,68.2z"/>
		<path class="st13" d="M840.4,69.9c0,0,12-19.3,20.9,0c9,19.3-9.2,39.9-9.2,39.9S837,145.9,840.4,69.9z"/>
		<path class="st4" d="M608.9,311.9c0,0,21.8-1.1,28.1-8.1c0,0-18.8-59.5-10-76.3l9.1-21.2l-10.4-7
			C625.6,199.2,599.1,252.7,608.9,311.9z"/>
		<path class="st16" d="M630.2,217.8c0,0,29.3-4.3,41.9,9.9c0,0-10.1-26.6-23.2-22.9c0,0,16.2-38.9,23.2-37.7
			c0,0-35.3,4.9-37.4,19.1c0,0-15.1-30.9-55-30.3c0,0,20.7,37.1,28.3,43.2c0,0-21.2-3.7-39.9,13.6
			C568.1,212.8,598.4,225.1,630.2,217.8z"/>
		<path class="st4" d="M291.1,159.6c0,0,14.3,5,19.7,0c0,0-1-62.3,7.8-76.1l9.9-17.9l-5.4-9.6C323.1,56.1,295.9,100.1,291.1,159.6z"
			/>
		<path class="st16" d="M328.6,65.7c0,0,19.7-3.2,28.2,7.3c0,0-6.8-19.7-15.7-17c0,0,10.9-28.9,15.7-28c0,0-23.8,3.7-25.2,14.2
			c0,0-10.2-22.9-37.1-22.5c0,0,14,27.5,19.1,32.1c0,0-14.3-2.8-26.9,10.1C286.7,62,307.1,71.1,328.6,65.7z"/>
		<path class="st4" d="M238.3,69.8c0,0,2.6-2.5,3.8-4.3c1.2-1.9,1.1,1.5,1.1,1.5s3.7-1.4,3.6-2c0,0,1.5-0.7,1.1,1.4
			c-0.5,2.1-1.7,3.5-1.7,3.5s4-3.1,4.5-4.3c0,0,2.2,2,0.7,3.8C249.8,71.2,238.3,69.8,238.3,69.8z"/>
		<path class="st11" d="M228.8,90.2c0,0-4.2,3.4-7.2-0.7c-3.1-4.1-1.3-9.1-1.3-9.1s1.4-7.4,6.8-3.6l1.5,1l1.1,1.1
			C229.7,78.8,231.1,86.9,228.8,90.2z"/>
		<path class="st11" d="M261.1,90.8c0,0,2.8,4.1,6.7,0.2s3.6-9.4,3.6-9.4s0.8-8-5.1-4.7l-1.6,0.9l-1.3,1
			C263.4,78.8,259.9,87,261.1,90.8z"/>
		<ellipse class="st4" cx="245.9" cy="84.9" rx="19.5" ry="18"/>
		<path class="st4" d="M222.1,132.4c0,0-36.8-5.2-15.9-42c0,0,2.1-3.4,3.7-1c0,0-19.7,33.6,12.2,38.4
			C254,132.6,222.1,132.4,222.1,132.4"/>
		<path class="st4" d="M249.9,104.6c0,0,1.4,7,9.2,8.9c0,0-1.4,1.8-0.8,3.9c0.6,2-12.5-4.1-12.5-4.1L249.9,104.6"/>
		<path class="st4" d="M221.2,129.5c0,0,11-4.2,13.6,0.8l3,8.8c0,0-0.4,4.6-5,4c0,0-3.9-6.3-8.5-4.8
			C224.3,138.3,218.3,134.9,221.2,129.5z"/>
		<path class="st4" d="M238.2,125.3c0,0,11-4.2,13.6,0.8l3,8.8c0,0-0.4,4.6-5,4c0,0-3.9-6.3-8.5-4.8
			C241.3,134.1,235.3,130.7,238.2,125.3z"/>
		<ellipse class="st11" cx="238.3" cy="141.7" rx="5.7" ry="3.4"/>
		<path class="st4" d="M230.6,98.4c0,0-12.2,13.8-13.7,30.5c0,0,15.7,12.9,25.7,4.7l8.8-34.9L230.6,98.4"/>
		<path class="st11" d="M243.8,123.6c0,0-3.2,8.1-9,6.7s0,0,0,0s-3.2-4.5-4.7-2.5s0,0,0,0s-0.3-6.8,2.2-10c0,0,2.8,2.7,5.1,3.1
			l1.1-6.5l-4.4-3.2c0,0,11.3-11.5,11.7,2.1s0,0,0,0S245.8,120.1,243.8,123.6"/>
		<ellipse class="st11" cx="239.7" cy="118.6" rx="4.6" ry="4"/>
		<ellipse class="st11" cx="260.8" cy="116.2" rx="4.6" ry="4"/>
		<ellipse class="st11" cx="254.8" cy="138.3" rx="5.7" ry="3.4"/>
		<path class="st11" d="M265.3,97c0,0-13.8,17.3-35.1,0.8c0,0-4.5-11,5-7.7c0,0-5.5-23.1,11.7-11.7c0,0,22.6-12.7,10.4,12.6
			C257.3,91,269.2,87.1,265.3,97z"/>
		<ellipse class="st17" cx="240.1" cy="84.9" rx="2.8" ry="3"/>
		<ellipse class="st17" cx="251.9" cy="84.9" rx="2.8" ry="3"/>
		<ellipse transform="matrix(0.6846 -0.7289 0.7289 0.6846 14.0159 202.2244)" class="st18" cx="240.7" cy="84.9" rx="2" ry="2.3"/>
		<ellipse transform="matrix(0.6846 -0.7289 0.7289 0.6846 17.6735 210.6674)" class="st18" cx="252.3" cy="84.9" rx="2" ry="2.3"/>
		<ellipse transform="matrix(0.9937 -0.1125 0.1125 0.9937 -7.9157 27.7245)" class="st19" cx="241.7" cy="84" rx="0.4" ry="0.5"/>
		<ellipse transform="matrix(0.9937 -0.1125 0.1125 0.9937 -7.8433 29.007)" class="st19" cx="253.1" cy="84" rx="0.4" ry="0.5"/>
		<path class="st14" d="M248.8,90.4c0,0-2.1-4.3-5.8,0H248.8z"/>
		<path class="st14" d="M254.3,98.4c0,0-7.5,7.1-16.3,0.4C238,98.8,247.6,100.9,254.3,98.4z"/>
		<path class="st14" d="M245.1,79.2c0,0-7.2-2.1-8.8,0.7C236.3,79.8,238.2,78.4,245.1,79.2"/>
		<path class="st14" d="M256.9,80.5c0,0-1.9-1.3-8.8-0.6C248.1,79.9,255.3,77.9,256.9,80.5z"/>
		<path class="st4" d="M397.6,135.7c0,0-3.2-3-4.7-5.2s-1.4,1.8-1.4,1.8s-4.6-1.6-4.4-2.5c0,0-1.9-0.8-1.3,1.7s2.1,4.2,2.1,4.2
			s-4.9-3.7-5.5-5.2c0,0-2.7,2.4-0.8,4.6C383.4,137.3,397.6,135.7,397.6,135.7z"/>
		<path class="st11" d="M409.3,160.2c0,0,5.2,4.1,8.9-0.9c3.8-5,1.5-11,1.5-11s-1.8-9-8.4-4.3l-1.8,1.3l-1.3,1.3
			C408.2,146.5,406.4,156.2,409.3,160.2z"/>
		<path class="st11" d="M369.5,160.9c0,0-3.4,5-8.2,0.2c-4.8-4.7-4.5-11.3-4.5-11.3s-1-9.6,6.3-5.6l2,1.1l1.6,1.2
			C366.6,146.5,371,156.4,369.5,160.9z"/>
		<ellipse class="st4" cx="388.1" cy="153.9" rx="24" ry="21.6"/>
		<path class="st4" d="M417.4,211c0,0,45.4-6.2,19.6-50.6c0,0-2.5-4.1-4.5-1.2c0,0,24.2,40.5-15,46.2S417.4,211,417.4,211"/>
		<path class="st4" d="M383.2,177.5c0,0-1.8,8.5-11.4,10.7c0,0,1.8,2.2,1,4.6c-0.8,2.4,15.4-4.9,15.4-4.9L383.2,177.5"/>
		<path class="st4" d="M414.8,218.1c0,0,11.2-8.9,9.1-11.3C421.9,204.5,414.8,218.1,414.8,218.1"/>
		<path class="st4" d="M418.6,207.5c0,0-13.5-5.1-16.7,1l-3.8,10.6c0,0,0.5,5.6,6.2,4.8c0,0,4.8-7.6,10.5-5.8
			C414.8,218.1,422.1,214.1,418.6,207.5z"/>
		<path class="st4" d="M397.7,202.4c0,0-13.5-5.1-16.7,1l-3.8,10.6c0,0,0.5,5.6,6.2,4.8c0,0,4.8-7.6,10.5-5.8
			C393.9,213,401.2,209,397.7,202.4z"/>
		<ellipse class="st11" cx="397.6" cy="222.2" rx="7.1" ry="4.1"/>
		<path class="st4" d="M407,170.1c0,0,15,16.6,16.9,36.7c0,0-19.4,15.5-31.7,5.7l-10.8-42L407,170.1"/>
		<path class="st11" d="M390.8,200.5c0,0,3.9,9.8,11,8s0,0,0,0s4-5.5,5.8-3s0,0,0,0s0.3-8.2-2.7-12.1c0,0-3.5,3.2-6.3,3.7l-1.4-7.8
			l5.4-3.8c0,0-13.9-13.9-14.4,2.6c-0.5,16.4,0,0,0,0S388.3,196.2,390.8,200.5"/>
		<ellipse class="st11" cx="395.8" cy="194.4" rx="5.7" ry="4.8"/>
		<ellipse class="st11" cx="369.8" cy="191.6" rx="5.7" ry="4.8"/>
		<ellipse class="st11" cx="377.2" cy="218.1" rx="7.1" ry="4.1"/>
		<path class="st11" d="M366.1,168.4c0,0,16.3,20.9,41.5,1c0,0,5.3-13.3-5.9-9.3c0,0,6.5-27.8-13.9-14c0,0-26.7-15.3-12.3,15.1
			C375.5,161.1,361.5,156.4,366.1,168.4z"/>
		<ellipse class="st17" cx="818.9" cy="83.5" rx="4.6" ry="6.4"/>
		<ellipse class="st17" cx="799.3" cy="83.1" rx="4.6" ry="6.4"/>
		
			<ellipse transform="matrix(0.2753 -0.9614 0.9614 0.2753 512.7883 846.8843)" class="st20" cx="818.1" cy="83.3" rx="4.6" ry="3.5"/>
		
			<ellipse transform="matrix(0.2753 -0.9614 0.9614 0.2753 499.0338 827.9619)" class="st20" cx="798.7" cy="83" rx="4.6" ry="3.5"/>
		
			<ellipse transform="matrix(6.191715e-02 -0.9981 0.9981 6.191715e-02 685.5399 896.4254)" class="st21" cx="819.6" cy="83.5" rx="1.1" ry="0.6"/>
		
			<ellipse transform="matrix(6.191715e-02 -0.9981 0.9981 6.191715e-02 667.8279 875.1771)" class="st21" cx="799.5" cy="82.3" rx="1.1" ry="0.6"/>
		<path class="st14" d="M809.3,72.6c0,0,13.9-4.5,16.9,1.4C826.2,74,822.5,71,809.3,72.6"/>
		<path class="st14" d="M789.4,73.9c0,0,2.7-2.8,12.5-1.3C801.9,72.6,791.6,68.4,789.4,73.9z"/>
		<ellipse class="st17" cx="395.3" cy="153.9" rx="3.4" ry="3.6"/>
		<ellipse class="st17" cx="380.8" cy="153.6" rx="3.4" ry="3.6"/>
		
			<ellipse transform="matrix(0.778 -0.6282 0.6282 0.778 -9.0299 282.0182)" class="st22" cx="394.6" cy="153.8" rx="2.8" ry="2.4"/>
		
			<ellipse transform="matrix(0.778 -0.6282 0.6282 0.778 -12.0695 272.9962)" class="st22" cx="380.3" cy="153.6" rx="2.8" ry="2.4"/>
		
			<ellipse transform="matrix(0.1212 -0.9926 0.9926 0.1212 195.1039 528.1638)" class="st23" cx="395.8" cy="153.9" rx="0.6" ry="0.5"/>
		
			<ellipse transform="matrix(0.1212 -0.9926 0.9926 0.1212 182.6259 512.6594)" class="st23" cx="380.8" cy="153.2" rx="0.6" ry="0.5"/>
		<path class="st14" d="M384.6,160.4c0,0,2.6-5.2,7.2,0H384.6z"/>
		<path class="st14" d="M377.9,170.1c0,0,9.2,8.6,20.1,0.4C398,170.5,386,173.1,377.9,170.1z"/>
		<path class="st14" d="M389.9,147.7c0,0,8.9-2.5,10.8,0.8C400.7,148.5,398.3,146.8,389.9,147.7"/>
		<path class="st14" d="M373.4,148.4c0,0,2.4-1.6,10.8-0.7C384.2,147.7,375.3,145.3,373.4,148.4z"/>
		<path class="st24" d="M1036.7,195.4h27.5l-4.4-43.6c0,0-9.6-8.5-17.5,2.4c0,0-5.3,16.7,3.2,31.7
			C1045.5,185.9,1036.7,188.2,1036.7,195.4z"/>
		<path class="st25" d="M1108.9,195.4h-23.5l3.8-43.6c0,0,8.2-8.5,15,2.4c0,0,4.5,16.7-2.8,31.7
			C1101.4,185.9,1108.9,188.2,1108.9,195.4z"/>
		<path class="st24" d="M1064.2,195.4h21.2l3.3-25.9c0,0-16.2,19.8-28.9,0L1064.2,195.4z"/>
		<path class="st24" d="M1051.1,126.5c0,0-0.1,11.6,1.2,26.2c1.1,12.5,3.2,27.1,7.2,38.5c0,0-4.4,0.3-7.2,4.1h20.4
			c0,0,0-1.7-1.4-4.8c0,0-13.6-25.8,1.4-41.9c0,0,14.4,8.9,3.9,46.7h18.6c0,0-4-4.1-6.5-3.7c0,0,14-46.3,6-64.7L1051.1,126.5z"/>
		<path class="st15" d="M1067,138.2c0,0-2.4,31.1-0.4,38.3c0,0,4.5,3.9,13.7,0c0,0,0.7-39.1-0.9-38.1L1067,138.2z"/>
		<path class="st4" d="M1102.1,68.2c0,0-13.2-13.2-30.3-6c0,0-12.5-6.4-27.5,6c0,0-41.4,33.3,28.9,73.7
			C1073.2,141.9,1138.7,108.5,1102.1,68.2z"/>
		<ellipse class="st24" cx="1073.1" cy="99.8" rx="22.1" ry="22.7"/>
		<ellipse class="st15" cx="1073.1" cy="114.1" rx="7.9" ry="6.1"/>
		<ellipse class="st17" cx="1084" cy="93.7" rx="4.7" ry="4.1"/>
		<ellipse class="st17" cx="1064.2" cy="93.3" rx="4.7" ry="4.1"/>
		
			<ellipse transform="matrix(0.9585 -0.2851 0.2851 0.9585 18.2937 312.6698)" class="st26" cx="1083.1" cy="93.5" rx="3.7" ry="2.8"/>
		
			<ellipse transform="matrix(0.9585 -0.2851 0.2851 0.9585 17.5365 307.051)" class="st26" cx="1063.4" cy="93.3" rx="3.7" ry="2.8"/>
		
			<ellipse transform="matrix(0.8312 -0.556 0.556 0.8312 131.0973 618.9517)" class="st27" cx="1084.8" cy="93.6" rx="0.7" ry="0.7"/>
		
			<ellipse transform="matrix(0.8312 -0.556 0.556 0.8312 128.0211 607.4387)" class="st27" cx="1064.3" cy="92.9" rx="0.7" ry="0.7"/>
		<path class="st14" d="M1068.4,109.3c0,0,3.6-5.9,9.9,0H1068.4z"/>
		<ellipse class="st15" cx="1073.1" cy="120.3" rx="6.2" ry="3.1"/>
		<path class="st14" d="M1064.9,117.4c0,0,7.5,6.3,16.4,0.3C1081.4,117.7,1071.5,119.6,1064.9,117.4z"/>
		<path class="st14" d="M1076.6,86.7c0,0,12.2-2.8,14.8,0.9C1091.4,87.6,1088.1,85.7,1076.6,86.7"/>
		<path class="st14" d="M1054,87.5c0,0,3.3-1.8,14.8-0.8C1068.8,86.7,1056.6,84,1054,87.5z"/>
		<path class="st24" d="M1052.3,77c0,0-3.4-3.8-10.4,0c0,0-7.3,7.5,0,16.6c0,0,2.1,2.9,4.3,2.6C1046.2,96.2,1045.2,88.1,1052.3,77z"
			/>
		<path class="st24" d="M1094.6,78.7c0,0,3.8-3.8,11.4,0c0,0,8,7.5,0,16.6c0,0-2.3,2.9-4.7,2.6C1101.3,97.9,1102.4,89.8,1094.6,78.7
			z"/>
		<path class="st24" d="M1058.3,150.6c0,0-14.8-22-26.1,0l1.5,1.3c0,0,9.1-17.9,22.8,0L1058.3,150.6z"/>
		
			<ellipse transform="matrix(0.4166 -0.9091 0.9091 0.4166 455.8413 1028.1379)" class="st4" cx="1029" cy="158.9" rx="9.2" ry="4.4"/>
		<path class="st24" d="M1134.8,214h-19.4l3.1-31.5c0,0,6.8-6.1,12.4,1.7c0,0,3.7,12-2.3,22.9C1128.6,207.1,1134.8,208.8,1134.8,214
			z"/>
		<path class="st24" d="M1083.9,214h16.6l-2.6-31.5c0,0-5.8-6.1-10.6,1.7c0,0-3.2,12,2,22.9C1089.2,207.1,1083.9,208.8,1083.9,214z"
			/>
		<path class="st24" d="M1115.5,214h-15l-2.3-18.7c0,0,11.4,14.3,20.4,0L1115.5,214z"/>
		<path class="st24" d="M1124.7,164.3c0,0,0.1,8.4-0.9,18.9c-0.8,9-2.3,19.6-5.1,27.8c0,0,3.1,0.2,5.1,3h-14.4c0,0,0-1.2,1-3.4
			c0,0,9.6-18.6-1-30.2c0,0-10.2,6.4-2.8,33.7h-13.1c0,0,2.9-3,4.6-2.7c0,0-9.9-33.4-4.2-46.7L1124.7,164.3z"/>
		<path class="st15" d="M1113.5,172.7c0,0,1.7,22.4,0.3,27.7c0,0-3.2,2.8-9.6,0c0,0-0.5-28.2,0.6-27.5L1113.5,172.7z"/>
		<path class="st4" d="M1088.7,122.2c0,0,9.3-9.5,21.4-4.3c0,0,8.8-4.6,19.4,4.3c0,0,29.2,24.1-20.4,53.2
			C1109.1,175.4,1062.9,151.2,1088.7,122.2z"/>
		<ellipse class="st24" cx="1109.1" cy="144.9" rx="15.6" ry="16.4"/>
		<ellipse class="st15" cx="1109.1" cy="155.3" rx="5.6" ry="4.4"/>
		<ellipse class="st17" cx="1101.4" cy="140.5" rx="3.3" ry="2.9"/>
		<ellipse class="st17" cx="1115.5" cy="140.3" rx="3.3" ry="2.9"/>
		<ellipse transform="matrix(0.31 -0.9507 0.9507 0.31 626.7792 1144.7606)" class="st28" cx="1102.1" cy="140.6" rx="2" ry="2.6"/>
		<ellipse transform="matrix(0.31 -0.9507 0.9507 0.31 636.5076 1157.7915)" class="st28" cx="1115.9" cy="140.4" rx="2" ry="2.6"/>
		<ellipse class="st17" cx="1100.9" cy="140.5" rx="0.5" ry="0.5"/>
		<ellipse class="st17" cx="1115.4" cy="139.9" rx="0.5" ry="0.5"/>
		<path class="st14" d="M1112.4,151.8c0,0-2.5-4.2-7,0H1112.4z"/>
		<ellipse class="st15" cx="1109.1" cy="159.7" rx="4.3" ry="2.3"/>
		<path class="st14" d="M1114.9,157.7c0,0-5.3,4.5-11.6,0.2C1103.3,157.9,1110.2,159.2,1114.9,157.7z"/>
		<path class="st14" d="M1106.7,135.5c0,0-8.6-2-10.4,0.7C1096.2,136.1,1098.5,134.8,1106.7,135.5"/>
		<path class="st14" d="M1122.6,136.1c0,0-2.3-1.3-10.4-0.6C1112.2,135.5,1120.8,133.5,1122.6,136.1z"/>
		<path class="st24" d="M1123.8,128.5c0,0,2.4-2.8,7.3,0c0,0,5.1,5.4,0,12c0,0-1.5,2.1-3.1,1.9
			C1128.1,142.4,1128.8,136.5,1123.8,128.5z"/>
		<path class="st24" d="M1094,129.7c0,0-2.7-2.8-8,0c0,0-5.6,5.4,0,12c0,0,1.6,2.1,3.3,1.9C1089.3,143.6,1088.5,137.7,1094,129.7z"
			/>
		<path class="st24" d="M1119.6,181.6c0,0,10.5-15.9,18.4,0l-1,0.9c0,0-6.4-12.9-16.1,0L1119.6,181.6z"/>
		
			<ellipse transform="matrix(0.9148 -0.4038 0.4038 0.9148 21.3275 476.395)" class="st4" cx="1140.2" cy="187.6" rx="3.1" ry="6.6"/>
		<path class="st4" d="M1350.1,273.7c0,0-17.9,7.2-24.6,0c0,0,1.2-90.2-9.7-110.2l-12.4-25.9l6.7-13.9
			C1310.1,123.7,1344.2,187.4,1350.1,273.7z"/>
		<path class="st12" d="M1303.4,137.8c0,0-24.6-4.6-35.2,10.6c0,0,8.5-28.5,19.6-24.6c0,0-13.6-41.8-19.6-40.5
			c0,0,29.7,5.4,31.5,20.6c0,0,12.7-33.2,46.4-32.6c0,0-17.5,39.8-23.9,46.5c0,0,17.9-4.1,33.6,14.6
			C1355.6,132.4,1330.1,145.6,1303.4,137.8z"/>
		<path class="st4" d="M971.8,287.7c0,0,14.3,5,19.7,0c0,0-1-62.3,7.8-76.1l9.9-17.9l-5.4-9.6C1003.8,184.1,976.5,228.1,971.8,287.7
			z"/>
		<path class="st16" d="M1009.2,193.8c0,0,19.7-3.2,28.2,7.3c0,0-6.8-19.7-15.7-17c0,0,10.9-28.9,15.7-28c0,0-23.8,3.7-25.2,14.2
			c0,0-10.2-22.9-37.1-22.5c0,0,14,27.5,19.1,32.1c0,0-14.3-2.8-26.9,10.1C967.4,190.1,987.8,199.2,1009.2,193.8z"/>
		<path class="st4" d="M985.5,147.3c0,0,14.3,5,19.7,0c0,0-1-62.3,7.8-76.1l9.9-17.9l-5.4-9.6C1017.5,43.7,990.2,87.7,985.5,147.3z"
			/>
		<path class="st12" d="M1022.9,53.4c0,0,19.7-3.2,28.2,7.3c0,0-6.8-19.7-15.7-17c0,0,10.9-28.9,15.7-28c0,0-23.8,3.7-25.2,14.2
			c0,0-10.2-22.9-37.1-22.5c0,0,14,27.5,19.1,32.1c0,0-14.3-2.8-26.9,10.1C981.1,49.7,1001.5,58.8,1022.9,53.4z"/>
		<rect x="218.8" y="459.4" class="st2" width="284.3" height="195.6"/>
		<rect x="240.5" y="517" class="st10" width="237.2" height="74.3"/>
		<rect x="230.1" y="466.9" class="st10" width="261.2" height="12.9"/>
		<path class="st11" d="M301.5,581.4h-42.1c-2.7,0-4.9,2.2-4.9,4.9l0,0c0,2.7,2.2,4.9,4.9,4.9h42.1c2.7,0,4.9-2.2,4.9-4.9l0,0
			C306.4,583.6,304.2,581.4,301.5,581.4z"/>
		<path class="st4" d="M301.5,571.5h-42.1c-2.7,0-4.9,2.2-4.9,4.9l0,0c0,2.7,2.2,4.9,4.9,4.9h42.1c2.7,0,4.9-2.2,4.9-4.9l0,0
			C306.4,573.7,304.2,571.5,301.5,571.5z"/>
		<path class="st16" d="M258.7,567.4h42.4c0,0,3,6.4-7.2,9.1c0,0-6.4-1.1-6.4-2.7c0,0-3.4,3.4-7,2.7c0,0-7-0.8-6.3-2.3
			c0,0-5.7,2.7-7.2,2.3C267,576.5,255.6,574.9,258.7,567.4z"/>
		<path class="st29" d="M298.8,567.4h-38.3c-1.7,0-3-1.4-3-3l0,0c0-1.7,1.4-3,3-3h38.3c1.7,0,3,1.4,3,3l0,0
			C301.9,566,300.5,567.4,298.8,567.4z"/>
		<path class="st11" d="M254.5,561.3h51.9c0,0,0-14.3-26-12.9C280.5,548.4,253.6,544.8,254.5,561.3z"/>
		<polygon class="st29" points="460.6,591.2 464.4,557.2 429.9,557.2 435.6,591.2 		"/>
		<path class="st15" d="M465.4,561.3h-35.2c-2,0-3.6-1.6-3.6-3.6l0,0c0-2,1.6-3.6,3.6-3.6h35.2c2,0,3.6,1.6,3.6,3.6l0,0
			C469,559.7,467.4,561.3,465.4,561.3z"/>
		<path class="st15" d="M450.8,557.7v-13.5l-14-8.3c0,0-1.1,4.5-2.3,4.5c-1.1,0,10.6,7.6,10.6,7.6v9.7H450.8z"/>
		<rect x="335.6" y="567.4" class="st30" width="54.6" height="23.9"/>
		<path class="st30" d="M368.9,557.7h-25c-4.6,0-8.3-3.8-8.3-8.3l0,0c0-4.6,3.8-8.3,8.3-8.3h25c4.6,0,8.3,3.8,8.3,8.3l0,0
			C377.3,553.9,373.5,557.7,368.9,557.7z"/>
		<path class="st30" d="M356.4,554.7L356.4,554.7c-1.8,0-3.2,1.5-3.2,3.2v15.3c0,1.8,1.5,3.2,3.2,3.2l0,0c1.8,0,3.2-1.5,3.2-3.2
			v-15.3C359.7,556.1,358.2,554.7,356.4,554.7z"/>
		<path class="st16" d="M367.6,553.9h-22.4c-1.7,0-3-1.4-3-3v-3c0-1.7,1.4-3,3-3h22.4c1.7,0,3,1.4,3,3v3
			C370.6,552.5,369.3,553.9,367.6,553.9z"/>
		<rect x="1008.3" y="459.4" class="st2" width="284.3" height="195.6"/>
		<rect x="1033.7" y="515.7" class="st10" width="237.2" height="76.7"/>
		<rect x="1021.7" y="466.9" class="st10" width="261.2" height="12.9"/>
		<rect x="1053.7" y="537.9" class="st30" width="195" height="7.6"/>
		<path class="st29" d="M1069.4,554.1h25.8c0,0,7.6,5.6,15.7,17.7l-10.1,6.1h-5.1l-0.5,14.6h-25.8v-14.6h-4.5l-8.1-4.6
			C1056.7,573.3,1060.8,562.7,1069.4,554.1z"/>
		<path class="st30" d="M1088.6,537.9c0,0-12.6-14.7-10.6,16.2h5.8v-16.2H1088.6z"/>
		<path class="st24" d="M1134.9,554.1h25.8c0,0,7.6,5.6,15.7,17.7l-10.1,6.1h-5.1l-0.5,14.6h-25.8v-14.6h-4.5l-8.1-4.6
			C1122.2,573.3,1126.3,562.7,1134.9,554.1z"/>
		<path class="st30" d="M1154.1,537.9c0,0-12.6-14.7-10.6,16.2h5.8v-16.2H1154.1z"/>
		<path class="st9" d="M1206.4,554.1h25.8c0,0,7.6,5.6,15.7,17.7l-10.1,6.1h-5.1l-0.5,14.6h-25.8v-14.6h-4.5l-8.1-4.6
			C1193.8,573.3,1197.8,562.7,1206.4,554.1z"/>
		<path class="st30" d="M1225.6,537.9c0,0-12.6-14.7-10.6,16.2h5.8v-16.2H1225.6z"/>
		<path class="st30" d="M653.5,768c0,0-7-110.1,98.5-108.6V768H653.5z"/>
		<path class="st30" d="M759.6,768h101.7c0,0,7.2-110.1-101.7-108.6"/>
		<rect x="752.1" y="722.5" class="st5" width="7.6" height="45.5"/>
		<rect x="683" y="534.4" class="st24" width="149.3" height="51.9"/>
		<rect x="739.2" y="447.2" class="st24" width="37.1" height="113.1"/>
		<path class="st24" d="M771.2,466.9h-27.3c-6.6,0-12-5.4-12-12v-36.6c0-6.6,5.4-12,12-12h27.3c6.6,0,12,5.4,12,12v36.6
			C783.2,461.5,777.8,466.9,771.2,466.9z"/>
		<path class="st15" d="M764.3,459.4h-13.1c-6.6,0-12-5.4-12-12v-20c0-6.6,5.4-12,12-12h13.1c6.6,0,12,5.4,12,12v20
			C776.3,454,770.9,459.4,764.3,459.4z"/>
		<path class="st14" d="M757.7,437.4l-0.2-14.4L757.7,437.4z"/>
		<path class="st14" d="M757.7,437.4l6.4,9.9L757.7,437.4z"/>
		<polygon class="st24" points="748.5,406.3 755.8,392.7 764.1,406.3 		"/>
		<path class="st4" d="M690.7,537.9h48.5v11.4h37.1v-11.4h50C826.3,537.9,768.7,615.7,690.7,537.9z"/>
	</g>
	<g class="st31">
		<rect x="311" y="261.2" class="st32" width="103.7" height="74.2"/>
		<rect x="414.8" y="261.2" class="st33" width="50.1" height="74.2"/>
		<rect x="260.5" y="261.2" class="st33" width="50.1" height="74.2"/>
		<ellipse class="st34" cx="439.7" cy="282.3" rx="11.2" ry="12"/>
		<circle class="st35" cx="454.3" cy="300.3" r="2"/>
		<ellipse class="st34" cx="287" cy="284.7" rx="11.8" ry="12"/>
		<ellipse class="st35" cx="271.6" cy="302.7" rx="2.1" ry="2"/>
		<rect class="st36" width="1366" height="768"/>
	</g>
	<g id="Layer_3" class="st31">
		<rect x="703.2" y="261.2" class="st32" width="103.7" height="74.2"/>
		<rect x="807" y="261.2" class="st33" width="50.1" height="74.2"/>
		<rect x="652.7" y="261.2" class="st33" width="50.1" height="74.2"/>
		<ellipse class="st34" cx="831.9" cy="282.3" rx="11.2" ry="12"/>
		<circle class="st35" cx="846.5" cy="300.3" r="2"/>
		<ellipse class="st34" cx="679.2" cy="284.7" rx="11.8" ry="12"/>
		<ellipse class="st35" cx="663.8" cy="302.7" rx="2.1" ry="2"/>
		<rect class="st36" width="1366" height="768"/>
	</g>
	<g id="Layer_4" class="st31">
		<rect x="1100.7" y="261.3" class="st32" width="103.7" height="74.2"/>
		<rect x="1204.5" y="261.3" class="st33" width="50.1" height="74.2"/>
		<rect x="1050.2" y="261.3" class="st33" width="50.1" height="74.2"/>
		<ellipse class="st34" cx="1229.5" cy="282.4" rx="11.2" ry="12"/>
		<circle class="st35" cx="1244.1" cy="300.4" r="2"/>
		<ellipse class="st34" cx="1076.8" cy="284.8" rx="11.8" ry="12"/>
		<ellipse class="st35" cx="1061.4" cy="302.8" rx="2.1" ry="2"/>
		<rect class="st36" width="1366" height="768"/>
	</g>
	<g id="Layer_5" class="st31">
		<path class="st37" d="M344.7,240.7c0,0-55.3-1.2-67.5-56.1c0,0-6.4-20.7,13.9-10.5c0,0,26.4,48.2,56.2,48.2
			C347.3,222.2,372.3,231.2,344.7,240.7z"/>
		<path class="st38" d="M332.2,193.3c0,0-20.1,1.3-26.5,15.4c0,0-19-12.3-29.4,2.3c0,0-4.2,7-4.8,10c0,0,16.5-7.3,25.8,0
			c0,0,30,26.5,47.4,19.7c0,0,28-10.5,2.7-18.5c0,0-16.3-0.8-27.9-12.6C319.4,209.6,320.1,199.7,332.2,193.3z"/>
		<path class="st39" d="M357.7,231.4c0,0-24.8,16.4-50.9-12.6c0,0-19.5-15.7-35.4,2.1"/>
		<rect class="st36" width="1366" height="768"/>
	</g>
	<g id="Layer_6" class="st31">
		
			<ellipse transform="matrix(0.9444 -0.3289 0.3289 0.9444 -8.1206 248.4095)" class="st40" cx="730.2" cy="148.2" rx="18.3" ry="24.5"/>
		
			<ellipse transform="matrix(0.9444 -0.3289 0.3289 0.9444 -19.2311 254.516)" class="st40" cx="742.7" cy="184.1" rx="18.3" ry="24.5"/>
		<line class="st39" x1="722.1" y1="125" x2="750.8" y2="207.3"/>
		<line class="st39" x1="727.4" y1="124.2" x2="755.8" y2="204.2"/>
		<line class="st39" x1="717.2" y1="128" x2="745.6" y2="208"/>
		<line class="st39" x1="713.2" y1="133.6" x2="738.7" y2="206.2"/>
		<line class="st39" x1="735.9" y1="127" x2="759.9" y2="198.1"/>
		<line class="st39" x1="712.9" y1="154.2" x2="747.5" y2="142.1"/>
		<line class="st39" x1="713.2" y1="133.6" x2="735.9" y2="127"/>
		<line class="st39" x1="710.4" y1="144.6" x2="743.6" y2="134.4"/>
		<line class="st39" x1="720.4" y1="166.1" x2="748.9" y2="157"/>
		<line class="st39" x1="715.5" y1="159.9" x2="749.3" y2="148.2"/>
		<line class="st39" x1="726" y1="191.5" x2="760.3" y2="178.9"/>
		<line class="st39" x1="724.6" y1="187.2" x2="758.3" y2="174.1"/>
		<line class="st39" x1="723.6" y1="180.7" x2="754.3" y2="169"/>
		<line class="st39" x1="724.6" y1="172.8" x2="748.5" y2="164.2"/>
		<line class="st39" x1="729" y1="197.4" x2="761.6" y2="185.2"/>
		<line class="st39" x1="734.7" y1="203.6" x2="761.2" y2="194.1"/>
		<line class="st39" x1="741.4" y1="206.9" x2="758.7" y2="200.6"/>
		<rect class="st36" width="1366" height="768"/>
	</g>
	<g id="Layer_7" class="st31">
		<path class="st41" d="M1263.1,216.8h17.8c0,0,6.9-17.6,8.5,5.1c0,0-0.4,21.1-8.5,4.6h-17.8V216.8z"/>
		<path class="st42" d="M1197.7,226.7c0,0-12.1-23.6,0-57.7c0,0,47.2-7.8,50.1,29.8c0,0,24.4-0.2,23.1,27.8
			C1271,226.7,1250,236.5,1197.7,226.7z"/>
		<ellipse class="st43" cx="1207.6" cy="199.1" rx="10.7" ry="24.6"/>
		<ellipse class="st41" cx="1204.2" cy="195.3" rx="3.2" ry="6.5"/>
		<rect class="st36" width="1366" height="768"/>
	</g>
	<g id="Layer_2_1_" class="st31">
		<pattern  id="SVGID_1_" xlink:href="#sprinkler" patternTransform="matrix(1 0 0 -1 -26.1 -17214.9004)">
		</pattern>
		<rect x="170.5" y="335.5" class="st44" width="381.1" height="387"/>
		<rect class="st36" width="1366" height="768"/>
	</g>
	<g id="Layer_3_1_" class="st31">
		<pattern  id="SVGID_2_" xlink:href="#sprinkler" patternTransform="matrix(1 0 0 -1 -26.1 -17214.9004)">
		</pattern>
		<rect x="955.8" y="335.4" class="st45" width="387.1" height="387.1"/>
		<rect class="st36" width="1366" height="768"/>
	</g>
	<g id="Layer_4_1_" class="st31">
		<pattern  id="SVGID_3_" xlink:href="#sprinkler" patternTransform="matrix(1 0 0 -1 -26.1 -17214.9004)">
		</pattern>
		<rect x="170.5" y="42.9" class="st46" width="1172.4" height="218.4"/>
		<rect class="st36" width="1366" height="768"/>
	</g>
</g>
<g id="Layer_2">
</g>
</svg>
